<?xml version="1.0" encoding="UTF-8"?>
<svg id="_レイヤー_1" data-name="レイヤー 1" xmlns="http://www.w3.org/2000/svg" viewBox="0 0 484 95">
  <defs>
    <style>
      .cls-1 {
        stroke: #fff;
        stroke-miterlimit: 10;
      }
    </style>
  </defs>
  <path class="cls-1" d="M388.05,39.91c-7.27,0-8.57,6.34-8.79,12.67-.22,4.61,1.08,8.71,6.12,8.71,6.99,0,8.57-6.41,8.79-12.82,.14-4.61-1.3-8.57-6.12-8.57Z"/>
  <path class="cls-1" d="M88.89,58.42c-.07,2.3,1.66,4.03,4.61,4.03,5.33,0,7.49-4.54,7.78-5.76l.43-3.24c-.65-.14-2.52-.72-4.97-.72-4.18,0-7.63,1.8-7.85,5.69Z"/>
  <path class="cls-1" d="M248.16,39.98c-3.96,0-7.42,3.46-7.92,10.23-.29,5.69,2.81,7.78,5.62,7.78,4.03,0,6.91-3.74,7.63-9.79l.22-2.59c-.22-1.3-1.51-5.62-5.54-5.62Z"/>
  <path class="cls-1" d="M.5,.5V94.5H483.5V.5H.5ZM72.97,27.6c-.29,4.68-1.15,30.1-1.51,37.01-.14,2.95,.94,5.76-4.54,5.76h-3.96c-4.25,0-3.46-2.66-3.38-5.33,.22-3.46,1.87-24.41,2.09-30.39h-.43c-1.8,4.46-9.79,22.25-10.87,25.2-.65,2.09-2.09,2.66-3.38,2.66h-6.91c-2.16,0-2.95-1.51-3.1-2.66-.29-3.53-3.46-21.17-3.89-25.06h-.43c-1.22,7.56-4.75,26.93-5.33,30.46-.58,3.02,0,5.11-4.1,5.11h-4.54c-3.96,0-4.1-2.09-3.46-4.75,1.66-6.91,7.71-35.5,8.42-38.88,.36-1.66,.58-5.33,4.39-5.33h8.21c1.51,0,3.82,.36,4.03,3.17,.29,2.45,4.1,25.56,4.1,25.56h.5s10.8-23.62,11.67-25.63c.94-3.02,3.17-3.1,5.04-3.1h8.14c4.03,0,3.46,3.46,3.24,6.19Zm40.91,18.94c-.22,3.53-2.45,14.98-2.52,17.57,0,1.8,.5,2.95,.94,3.74-.5,.72-2.38,3.24-6.48,3.24-3.6,0-5.69-2.09-4.46-7.56h-.36s-3.17,7.56-11.38,7.56c-6.98,0-11.31-4.61-11.02-11.3,.29-7.99,6.62-12.6,14.69-12.82,2.74-.07,5.76,.36,8.78,1.37,0,0,.36-1.3,.36-2.3,.14-3.02-.58-5.83-6.7-5.83-4.97,0-9.29,1.3-9.94,1.44-.29-.58-2.59-5.62,.36-8.57,1.8-1.8,5.98-3.02,11.88-3.02,11.59,0,16.71,6.26,15.84,16.49Zm45.87-5.18c-.79,8.71-9.58,11.45-9.58,11.45,1.44,5.11,6.62,14.54,7.49,15.26,0,0-1.8,3.02-6.84,3.02s-6.34-1.87-7.34-4.18c-1.51-3.24-3.38-11.23-4.61-15.34l.72-1.01c4.1-.43,7.34-2.3,7.7-5.98,.36-2.95-1.94-4.82-4.9-4.82-4.97,0-8.78,5.33-9.5,11.23-.36,2.52-1.08,8.57-1.37,12.31-.22,2.95,.72,7.06-4.54,7.06h-4.39c-3.96,0-3.67-3.53-3.24-6.26,1.01-6.91,4.9-35.79,5.04-37.8,.22-2.16-.5-3.02-.72-3.82,.58-1.15,2.52-3.24,6.7-3.24,6.05,0,6.7,3.74,6.12,7.13-.36,2.74-1.8,9-2.45,11.81l.58,.07c1.8-3.82,6.77-8.21,13.75-8.21s11.88,4.82,11.38,11.31Zm19.42-3.53c-.36,4.68-3.38,24.48-3.38,26.64-.07,2.02,.79,3.38,.79,3.38,0,0-1.37,3.24-6.55,3.24-5.98,0-6.26-3.74-5.98-6.98,.43-5.04,3.17-22.54,3.38-26.5,.14-2.23-.79-3.74-.79-3.74,0,0,1.3-3.1,6.48-3.1,5.76,0,6.26,3.38,6.05,7.06Zm1.51-15.99c-.5,4.54-3.1,5.04-6.41,5.04-3.53,0-5.98-.5-5.62-5.04,.5-4.68,3.17-5.18,6.55-5.18s5.9,.5,5.47,5.18Zm42.74,20.81c-.29,4.97-2.95,18.72-3.02,21.53-.07,2.02,.79,3.31,.79,3.31,0,0-1.58,3.53-6.62,3.53-6.05,0-6.34-3.89-6.19-6.62,.07-3.38,2.74-15.19,2.88-18.65,.14-3.17-1.22-5.83-4.54-5.83-4.25,0-6.91,4.1-7.63,5.18-.72,4.75-1.58,10.73-1.94,14.98-.36,4.39,.86,10.23-4.75,10.23h-4.18c-3.96,0-3.74-3.53-3.31-6.26,1.58-11.59,3.38-23.91,3.6-27.29,.14-2.02-.86-3.6-.86-3.6,0,0,1.44-3.1,6.7-3.1s6.12,2.81,6.05,5.69c0,.86-.14,1.8-.29,2.74h.36c1.15-3.17,5.18-8.5,12.82-8.5,6.84,0,10.66,5.9,10.15,12.67Zm43.46-7.06c-.5,3.74-2.66,20.52-3.46,25.13-2.09,12.75-7.7,21.17-21.96,21.17-7.2,0-12.31-2.45-12.31-6.7,.07-1.87,1.08-4.1,2.38-5.18,0,0,3.74,2.59,9.72,2.59,8.28,0,11.23-6.05,12.17-12.53h-.58s-3.24,6.12-11.67,6.12c-5.83,0-13.46-4.1-12.6-16.35,.65-11.16,6.62-19.8,16.49-19.8,7.06,0,9.58,4.75,9.86,8.42h.58l1.08-4.54c.72-2.3,2.09-3.17,3.82-3.17h3.38c3.53,0,3.38,2.95,3.1,4.82Zm35.95,5.04l5.11,1.44c8.35,2.45,11.23,7.27,10.8,13.1-.72,10.3-9.07,15.91-20.74,15.91-5.4,0-9.87-1.58-11.38-2.38-3.31-1.51-4.18-3.53-2.52-7.34,.94-2.3,2.59-3.89,2.59-3.89,0,0,4.25,3.82,12.17,3.82,4.32,0,7.42-2.16,7.71-5.33,.29-2.38-1.66-4.18-5.9-5.54l-5.18-1.51c-6.05-1.94-10.3-5.54-9.87-12.31,.65-9.72,8.21-15.91,19.44-15.91,5.98,0,10.15,1.73,11.74,2.59,2.59,1.3,3.74,2.74,1.58,7.34-.86,1.73-2.09,3.1-2.09,3.1,0,0-4.97-3.24-11.59-3.24-4.39,0-6.84,2.09-7.27,5.18-.29,2.66,2.09,4.03,5.4,4.97Zm60.13,2.09c-.29,4.97-3.02,18.65-3.1,21.46,0,2.02,.86,3.38,.86,3.38,0,0-1.66,3.53-6.7,3.53-6.05,0-6.26-3.89-6.12-6.7,.07-3.38,2.74-15.19,2.88-18.65,.14-3.17-1.22-5.83-4.54-5.83-4.46,0-7.2,4.46-7.78,5.33-1.01,7.49-2.02,15.05-2.09,18.07-.22,2.95,.72,7.06-4.54,7.06h-4.1c-4.03,0-3.74-3.53-3.38-6.26,1.08-6.91,4.9-36.22,5.04-38.24,.14-2.02-.86-3.31-.86-3.31,0,0,1.44-3.31,6.62-3.31,5.98,0,6.55,3.74,5.98,7.13l-1.73,12.17h.58c1.08-3.24,5.18-8.5,12.82-8.5,6.91,0,10.73,5.83,10.15,12.67Zm21.34,28.44c-11.74,0-16.63-9-16.34-18.43,.5-13.83,8.06-22.68,21.17-22.68,11.74,0,16.71,8.86,16.49,18.07-.5,13.9-8.28,23.04-21.31,23.04Zm86.65-33.48c-1.3,14.11-12.82,33.41-24.34,33.41-5.33,0-6.84-3.24-6.26-7.42,.72-6.77,.79-15.99,.65-22.39l-.5-.07c-3.46,11.3-10.95,29.88-20.67,29.88-5.83,0-6.98-2.81-6.91-6.48,.14-15.05-1.37-28.15-3.24-31.4,0,0,1.8-3.17,6.99-3.17,5.83,0,6.7,5.47,6.7,7.63,.14,2.66,.43,13.54-.72,23.04l.5,.29c2.38-2.95,8.86-16.06,11.23-28.01,.07-.58,.07-1.66,.07-1.73,0,0,2.16-1.22,6.34-1.22,7.2,0,7.85,4.82,8.06,9.22,.22,6.19,.36,15.77-.22,21.39l.5,.29c4.54-4.75,9.29-14.91,10.51-27.22,.07-1.51-.07-2.74-.07-2.88,0,0,1.87-.79,3.96-.79,3.74,0,7.85,2.02,7.42,7.63Z"/>
</svg>