<svg id="グループ_1" data-name="グループ 1" xmlns="http://www.w3.org/2000/svg" width="484" height="95" viewBox="0 0 484 95">
  <path id="パス_1" data-name="パス 1" d="M388.05,39.91c-7.27,0-8.57,6.34-8.79,12.67-.22,4.61,1.08,8.71,6.12,8.71,6.99,0,8.57-6.41,8.79-12.82.14-4.61-1.3-8.57-6.12-8.57Z" stroke="#fff" stroke-miterlimit="10" stroke-width="1"/>
  <path id="パス_2" data-name="パス 2" d="M88.89,58.42c-.07,2.3,1.66,4.03,4.61,4.03a8.17,8.17,0,0,0,7.78-5.76l.43-3.24a19.814,19.814,0,0,0-4.97-.72c-4.18,0-7.63,1.8-7.85,5.69Z" stroke="#fff" stroke-miterlimit="10" stroke-width="1"/>
  <path id="パス_3" data-name="パス 3" d="M248.16,39.98c-3.96,0-7.42,3.46-7.92,10.23-.29,5.69,2.81,7.78,5.62,7.78,4.03,0,6.91-3.74,7.63-9.79l.22-2.59c-.22-1.3-1.51-5.62-5.54-5.62Z" stroke="#fff" stroke-miterlimit="10" stroke-width="1"/>
  <path id="パス_4" data-name="パス 4" d="M.5.5v94h483V.5ZM72.97,27.6c-.29,4.68-1.15,30.1-1.51,37.01-.14,2.95.94,5.76-4.54,5.76H62.96c-4.25,0-3.46-2.66-3.38-5.33.22-3.46,1.87-24.41,2.09-30.39h-.43c-1.8,4.46-9.79,22.25-10.87,25.2a3.363,3.363,0,0,1-3.38,2.66H40.08a2.921,2.921,0,0,1-3.1-2.66c-.29-3.53-3.46-21.17-3.89-25.06h-.43c-1.22,7.56-4.75,26.93-5.33,30.46-.58,3.02,0,5.11-4.1,5.11H18.69c-3.96,0-4.1-2.09-3.46-4.75,1.66-6.91,7.71-35.5,8.42-38.88.36-1.66.58-5.33,4.39-5.33h8.21c1.51,0,3.82.36,4.03,3.17.29,2.45,4.1,25.56,4.1,25.56h.5S55.68,26.51,56.55,24.5c.94-3.02,3.17-3.1,5.04-3.1h8.14c4.03,0,3.46,3.46,3.24,6.19Zm40.91,18.94c-.22,3.53-2.45,14.98-2.52,17.57a7.288,7.288,0,0,0,.94,3.74,7.565,7.565,0,0,1-6.48,3.24c-3.6,0-5.69-2.09-4.46-7.56H101s-3.17,7.56-11.38,7.56c-6.98,0-11.31-4.61-11.02-11.3.29-7.99,6.62-12.6,14.69-12.82a25.863,25.863,0,0,1,8.78,1.37,10.534,10.534,0,0,0,.36-2.3c.14-3.02-.58-5.83-6.7-5.83a40.06,40.06,0,0,0-9.94,1.44c-.29-.58-2.59-5.62.36-8.57,1.8-1.8,5.98-3.02,11.88-3.02,11.59,0,16.71,6.26,15.84,16.49Zm45.87-5.18c-.79,8.71-9.58,11.45-9.58,11.45,1.44,5.11,6.62,14.54,7.49,15.26,0,0-1.8,3.02-6.84,3.02s-6.34-1.87-7.34-4.18c-1.51-3.24-3.38-11.23-4.61-15.34l.72-1.01c4.1-.43,7.34-2.3,7.7-5.98.36-2.95-1.94-4.82-4.9-4.82-4.97,0-8.78,5.33-9.5,11.23-.36,2.52-1.08,8.57-1.37,12.31-.22,2.95.72,7.06-4.54,7.06h-4.39c-3.96,0-3.67-3.53-3.24-6.26,1.01-6.91,4.9-35.79,5.04-37.8a7.073,7.073,0,0,0-.72-3.82c.58-1.15,2.52-3.24,6.7-3.24,6.05,0,6.7,3.74,6.12,7.13-.36,2.74-1.8,9-2.45,11.81l.58.07a15.349,15.349,0,0,1,13.75-8.21c6.98,0,11.88,4.82,11.38,11.31Zm19.42-3.53c-.36,4.68-3.38,24.48-3.38,26.64a6.4,6.4,0,0,0,.79,3.38s-1.37,3.24-6.55,3.24c-5.98,0-6.26-3.74-5.98-6.98.43-5.04,3.17-22.54,3.38-26.5a6.853,6.853,0,0,0-.79-3.74s1.3-3.1,6.48-3.1c5.76,0,6.26,3.38,6.05,7.06Zm1.51-15.99c-.5,4.54-3.1,5.04-6.41,5.04-3.53,0-5.98-.5-5.62-5.04.5-4.68,3.17-5.18,6.55-5.18s5.9.5,5.47,5.18Zm42.74,20.81c-.29,4.97-2.95,18.72-3.02,21.53a6.007,6.007,0,0,0,.79,3.31s-1.58,3.53-6.62,3.53c-6.05,0-6.34-3.89-6.19-6.62.07-3.38,2.74-15.19,2.88-18.65.14-3.17-1.22-5.83-4.54-5.83-4.25,0-6.91,4.1-7.63,5.18-.72,4.75-1.58,10.73-1.94,14.98-.36,4.39.86,10.23-4.75,10.23h-4.18c-3.96,0-3.74-3.53-3.31-6.26,1.58-11.59,3.38-23.91,3.6-27.29a6.539,6.539,0,0,0-.86-3.6s1.44-3.1,6.7-3.1,6.12,2.81,6.05,5.69a18,18,0,0,1-.29,2.74h.36a13.5,13.5,0,0,1,12.82-8.5c6.84,0,10.66,5.9,10.15,12.67Zm43.46-7.06c-.5,3.74-2.66,20.52-3.46,25.13-2.09,12.75-7.7,21.17-21.96,21.17-7.2,0-12.31-2.45-12.31-6.7a7.75,7.75,0,0,1,2.38-5.18,18.258,18.258,0,0,0,9.72,2.59c8.28,0,11.23-6.05,12.17-12.53h-.58s-3.24,6.12-11.67,6.12c-5.83,0-13.46-4.1-12.6-16.35.65-11.16,6.62-19.8,16.49-19.8,7.06,0,9.58,4.75,9.86,8.42h.58l1.08-4.54c.72-2.3,2.09-3.17,3.82-3.17h3.38c3.53,0,3.38,2.95,3.1,4.82Zm35.95,5.04,5.11,1.44c8.35,2.45,11.23,7.27,10.8,13.1-.72,10.3-9.07,15.91-20.74,15.91a27.282,27.282,0,0,1-11.38-2.38c-3.31-1.51-4.18-3.53-2.52-7.34a12.656,12.656,0,0,1,2.59-3.89s4.25,3.82,12.17,3.82c4.32,0,7.42-2.16,7.71-5.33.29-2.38-1.66-4.18-5.9-5.54l-5.18-1.51c-6.05-1.94-10.3-5.54-9.87-12.31.65-9.72,8.21-15.91,19.44-15.91a25.6,25.6,0,0,1,11.74,2.59c2.59,1.3,3.74,2.74,1.58,7.34a15.7,15.7,0,0,1-2.09,3.1,23.267,23.267,0,0,0-11.59-3.24c-4.39,0-6.84,2.09-7.27,5.18-.29,2.66,2.09,4.03,5.4,4.97Zm60.13,2.09c-.29,4.97-3.02,18.65-3.1,21.46a6.831,6.831,0,0,0,.86,3.38s-1.66,3.53-6.7,3.53c-6.05,0-6.26-3.89-6.12-6.7.07-3.38,2.74-15.19,2.88-18.65.14-3.17-1.22-5.83-4.54-5.83-4.46,0-7.2,4.46-7.78,5.33-1.01,7.49-2.02,15.05-2.09,18.07-.22,2.95.72,7.06-4.54,7.06h-4.1c-4.03,0-3.74-3.53-3.38-6.26,1.08-6.91,4.9-36.22,5.04-38.24a5.156,5.156,0,0,0-.86-3.31s1.44-3.31,6.62-3.31c5.98,0,6.55,3.74,5.98,7.13L339.4,38.55h.58a13.325,13.325,0,0,1,12.82-8.5c6.91,0,10.73,5.83,10.15,12.67ZM384.3,71.16c-11.74,0-16.63-9-16.34-18.43.5-13.83,8.06-22.68,21.17-22.68,11.74,0,16.71,8.86,16.49,18.07-.5,13.9-8.28,23.04-21.31,23.04Zm86.65-33.48c-1.3,14.11-12.82,33.41-24.34,33.41-5.33,0-6.84-3.24-6.26-7.42A197.134,197.134,0,0,0,441,41.28l-.5-.07c-3.46,11.3-10.95,29.88-20.67,29.88-5.83,0-6.98-2.81-6.91-6.48.14-15.05-1.37-28.15-3.24-31.4,0,0,1.8-3.17,6.99-3.17,5.83,0,6.7,5.47,6.7,7.63a156.63,156.63,0,0,1-.72,23.04l.5.29c2.38-2.95,8.86-16.06,11.23-28.01.07-.58.07-1.66.07-1.73a13.826,13.826,0,0,1,6.34-1.22c7.2,0,7.85,4.82,8.06,9.22.22,6.19.36,15.77-.22,21.39l.5.29c4.54-4.75,9.29-14.91,10.51-27.22a23.414,23.414,0,0,0-.07-2.88,11.469,11.469,0,0,1,3.96-.79c3.74,0,7.85,2.02,7.42,7.63Z" stroke="#fff" stroke-miterlimit="10" stroke-width="1"/>
</svg>
